<?xml version="1.0" encoding="UTF-8"?>
<svg xmlns="http://www.w3.org/2000/svg" xmlns:xlink="http://www.w3.org/1999/xlink" width="365.51pt" height="528.13pt" viewBox="0 0 365.51 528.13" version="1.1">
<defs>
<clipPath id="clip1">
  <path d="M 0 0 L 365.511719 0 L 365.511719 528.128906 L 0 528.128906 Z M 0 0 "/>
</clipPath>
</defs>
<g id="surface1">
<g clip-path="url(#clip1)" clip-rule="nonzero">
<path style=" stroke:none;fill-rule:nonzero;fill:rgb(27.49939%,19.999695%,55.699158%);fill-opacity:1;" d="M 211.707031 218.9375 L 215.242188 223.71875 C 215.242188 223.71875 232.078125 221.226563 233.742188 222.472656 L 235.195313 221.226563 C 235.195313 221.226563 223.972656 187.136719 234.988281 176.121094 C 234.988281 176.121094 246.421875 166.144531 255.359375 195.867188 C 255.359375 195.867188 260.96875 218.109375 261.175781 227.253906 L 263.046875 227.460938 L 269.074219 221.644531 C 269.074219 221.644531 261.800781 180.070313 255.773438 174.253906 C 255.773438 174.253906 253.902344 168.433594 258.058594 170.09375 C 258.058594 170.09375 268.660156 187.136719 269.90625 197.945313 C 269.90625 197.945313 271.152344 214.78125 277.183594 214.992188 C 277.183594 214.992188 280.300781 214.574219 284.042969 211.871094 C 284.042969 211.871094 314.59375 184.4375 352.839844 228.503906 C 352.839844 228.503906 358.867188 235.359375 358.453125 240.972656 C 358.453125 240.972656 319.792969 230.785156 306.074219 252.195313 C 306.074219 252.195313 292.5625 267.785156 293.601563 271.320313 C 293.601563 271.320313 318.285156 303.203125 324.066406 342.414063 C 324.097656 342.617188 324.125 342.824219 324.15625 343.027344 C 324.15625 343.027344 333.253906 377.074219 336.5625 385.238281 C 339.875 393.40625 352.234375 437.769531 347.597656 448.144531 C 342.964844 458.519531 348.042969 458.960938 348.484375 459.621094 C 348.925781 460.285156 364.816406 491.625 364.816406 499.792969 C 364.816406 499.792969 367.464844 522.085938 362.386719 523.410156 C 362.386719 523.410156 351.351563 499.792969 340.097656 499.792969 C 340.097656 499.792969 337.886719 499.128906 339.433594 509.0625 C 339.433594 509.0625 343.1875 525.398438 341.863281 527.824219 C 341.863281 527.824219 341.859375 529.148438 338.328125 526.277344 C 338.328125 526.277344 318.6875 511.269531 316.039063 513.035156 C 316.039063 513.035156 313.828125 515.023438 313.828125 519.65625 C 313.828125 519.65625 311.179688 525.398438 302.792969 518.773438 C 302.792969 518.773438 265.710938 499.792969 262.621094 501.558594 C 262.621094 501.558594 267.480469 515.683594 260.195313 520.101563 C 260.195313 520.101563 249.601563 515.464844 238.121094 501.335938 C 238.121094 501.335938 232.382813 495.378906 228.191406 500.675781 C 228.191406 500.675781 226.203125 509.0625 217.816406 502 C 217.816406 502 202.367188 487.433594 197.070313 488.09375 C 191.769531 488.757813 193.316406 494.273438 193.976563 498.6875 C 193.976563 498.6875 169.476563 477.941406 167.933594 480.589844 C 167.933594 480.589844 164.84375 486.988281 165.945313 491.40625 C 165.945313 491.40625 127.761719 460.726563 122.242188 462.933594 C 122.242188 462.933594 123.128906 473.308594 126.21875 475.734375 C 126.21875 475.734375 95.152344 456.152344 93.46875 457.445313 C 93.46875 457.445313 75.136719 479.234375 62.339844 472.664063 C 62.339844 472.664063 69.949219 435.652344 68.910156 429.082031 C 68.910156 429.082031 66.488281 371.320313 68.21875 366.824219 C 68.21875 366.824219 42.96875 348.839844 61.300781 303.527344 C 61.300781 303.527344 66.488281 278.28125 64.414063 276.203125 C 64.414063 276.203125 1.8125 281.394531 12.878906 211.179688 C 12.878906 211.179688 19.453125 195.269531 31.902344 190.429688 L 31.554688 188.351563 C 31.554688 188.351563 -19.632813 158.953125 8.382813 113.296875 C 8.382813 113.296875 23.949219 89.085938 54.730469 89.429688 C 54.730469 89.429688 29.480469 46.195313 77.558594 10.917969 C 77.558594 10.917969 109.035156 -11.566406 154.6875 43.429688 L 156.417969 43.085938 C 156.417969 43.085938 192.53125 -34.992188 248.066406 19.054688 C 248.066406 19.054688 277.214844 47.355469 266.152344 82.675781 C 266.152344 82.675781 257.425781 97.996094 272.320313 117.148438 C 272.320313 117.148438 293.8125 153.53125 256.152344 164.382813 C 256.152344 164.382813 237.851563 167.363281 228.066406 136.933594 C 228.066406 136.933594 208.914063 141.828125 199.550781 119.0625 C 199.550781 119.0625 179.339844 120.976563 175.082031 111.828125 C 175.082031 111.828125 124.226563 110.335938 94.011719 141.191406 C 94.011719 141.191406 55.28125 172.695313 66.78125 224.195313 C 66.78125 224.195313 79.28125 259.195313 72.78125 287.695313 C 72.78125 287.695313 70.78125 311.695313 62.78125 326.195313 C 62.78125 326.195313 59.78125 341.695313 70.78125 352.695313 C 70.78125 352.695313 73.78125 335.695313 78.28125 335.695313 C 78.28125 335.695313 80.78125 353.195313 75.78125 366.195313 C 75.78125 366.195313 70.28125 384.195313 80.28125 387.195313 C 80.28125 387.195313 73.28125 451.695313 78.78125 458.195313 C 78.78125 458.195313 89.28125 460.695313 93.78125 443.695313 C 93.78125 443.695313 113.78125 475.695313 119.78125 445.695313 C 119.78125 445.695313 153.78125 477.195313 158.78125 477.195313 C 158.78125 477.195313 163.28125 471.695313 159.28125 461.695313 C 159.28125 461.695313 180.28125 483.195313 185.28125 483.195313 C 185.28125 483.195313 189.78125 477.695313 187.78125 472.195313 C 187.78125 472.195313 212.78125 499.195313 220.78125 494.195313 C 220.78125 494.195313 217.78125 484.695313 223.78125 480.195313 C 223.78125 480.195313 189.28125 449.195313 199.78125 382.695313 C 199.78125 382.695313 203.78125 320.195313 202.28125 316.695313 C 202.28125 316.695313 175.28125 300.195313 161.28125 293.195313 C 161.28125 293.195313 136.28125 272.195313 156.78125 257.195313 C 156.78125 257.195313 167.78125 250.195313 188.78125 256.695313 C 188.78125 256.695313 191.78125 257.695313 192.28125 254.195313 C 192.28125 254.195313 165.148438 217.277344 179.492188 189.632813 C 179.492188 189.632813 191.546875 177.367188 201.9375 195.453125 C 201.9375 195.453125 211.230469 207.089844 211.707031 218.9375 "/>
</g>
<path style=" stroke:none;fill-rule:nonzero;fill:rgb(87.5%,23.899841%,17.298889%);fill-opacity:1;" d="M 212.566406 317.257813 C 212.566406 317.257813 217.59375 347.929688 209.046875 389.15625 C 209.046875 389.15625 194.96875 441.28125 234.1875 473.625 C 273.402344 505.972656 306.085938 469.605469 305.078125 445.472656 C 305.078125 445.472656 306.652344 405.707031 269.570313 358.707031 C 269.570313 358.707031 257.527344 340.519531 257.761719 325.875 C 257.761719 325.875 240.351563 313.128906 212.566406 317.257813 "/>
<path style=" stroke:none;fill-rule:nonzero;fill:rgb(87.5%,23.899841%,17.298889%);fill-opacity:1;" d="M 268.628906 327.292969 C 268.628906 327.292969 268.863281 345.949219 300.984375 390.828125 C 300.984375 390.828125 319.878906 417.753906 319.878906 464.046875 C 319.878906 464.046875 336.414063 469.714844 341.375 453.417969 C 341.375 453.417969 349.875 407.121094 311.378906 356.8125 C 311.378906 356.8125 286.578125 326.113281 268.628906 327.292969 "/>
<path style="fill:none;stroke-width:10;stroke-linecap:butt;stroke-linejoin:miter;stroke:rgb(27.49939%,19.999695%,55.699158%);stroke-opacity:1;stroke-miterlimit:4;" d="M 3024.023438 1878.4875 C 3024.023438 1878.4875 3205.898438 1701.339063 3210.625 1670.635938 L 3229.492188 1670.635938 C 3229.492188 1670.635938 3272.03125 1873.760938 3024.023438 1878.4875 Z M 3024.023438 1878.4875 " transform="matrix(0.1,0,0,-0.1,0,528.13)"/>
<path style=" stroke:none;fill-rule:nonzero;fill:rgb(100%,100%,100%);fill-opacity:1;" d="M 286.339844 497.339844 C 286.339844 497.339844 285.867188 499.9375 288.230469 501.59375 C 288.230469 501.59375 302.640625 511.277344 308.78125 510.804688 C 308.78125 510.804688 308.542969 506.316406 303.109375 500.648438 C 303.109375 500.648438 300.75 492.617188 307.835938 494.035156 C 307.835938 494.035156 317.519531 498.996094 320.589844 503.246094 C 320.589844 503.246094 329.328125 514.582031 331.691406 512.929688 C 331.691406 512.929688 332.398438 506.078125 329.328125 497.8125 C 329.328125 497.8125 332.398438 481.28125 338.304688 486.710938 C 338.304688 486.710938 353.890625 498.050781 354.128906 500.882813 L 355.546875 500.175781 C 355.546875 500.175781 357.199219 478.917969 344.445313 470.414063 C 344.445313 470.414063 342.789063 468.054688 343.027344 466.871094 C 343.027344 466.871094 323.1875 481.28125 309.722656 481.042969 C 309.722656 481.042969 290.828125 490.019531 286.339844 497.339844 "/>
<path style=" stroke:none;fill-rule:nonzero;fill:rgb(100%,100%,100%);fill-opacity:1;" d="M 226.585938 482.460938 C 226.585938 482.460938 233.671875 499.230469 251.859375 503.246094 C 251.859375 503.246094 251.148438 488.835938 226.585938 482.460938 "/>
<path style=" stroke:none;fill-rule:nonzero;fill:rgb(100%,100%,100%);fill-opacity:1;" d="M 285.632813 271.074219 C 285.632813 271.074219 283.980469 276.035156 294.371094 289.96875 C 294.371094 289.96875 309.25 316.894531 309.25 326.34375 C 309.25 326.34375 201.550781 283.589844 189.976563 287.371094 C 189.976563 287.371094 185.960938 292.566406 182.890625 287.84375 C 182.890625 287.84375 175.804688 276.976563 181.710938 272.726563 C 181.710938 272.726563 186.671875 267.53125 189.503906 272.964844 C 189.503906 272.964844 190.210938 277.449219 198.242188 280.050781 C 198.242188 280.050781 247.84375 300.359375 277.839844 264.222656 C 277.839844 264.222656 302.164063 225.015625 338.773438 229.976563 C 338.773438 229.976563 330.746094 209.191406 299.566406 212.734375 C 299.566406 212.734375 281.382813 219.109375 263.195313 240.605469 C 263.195313 240.605469 247.605469 251.703125 238.160156 236.589844 C 238.160156 236.589844 228.710938 228.320313 220.445313 235.171875 C 220.445313 235.171875 214.304688 240.839844 212.179688 252.648438 C 212.179688 252.648438 206.507813 270.601563 186.90625 264.933594 C 186.90625 264.933594 160.925781 256.429688 157.855469 268.945313 C 157.855469 268.945313 152.660156 283.117188 168.957031 292.566406 C 168.957031 292.566406 188.320313 300.125 189.738281 302.484375 C 189.738281 302.484375 248.785156 311.226563 252.566406 312.878906 C 252.566406 312.878906 296.96875 325.394531 318.699219 339.332031 L 319.878906 339.09375 C 319.878906 339.09375 309.015625 294.21875 291.539063 277.214844 C 291.539063 277.214844 288.703125 270.601563 285.632813 271.074219 "/>
<path style=" stroke:none;fill-rule:nonzero;fill:rgb(100%,100%,100%);fill-opacity:1;" d="M 264.140625 285.246094 C 264.140625 285.246094 260.597656 281.9375 254.929688 288.789063 C 254.929688 288.789063 252.566406 290.914063 255.871094 292.566406 C 255.871094 292.566406 263.195313 299.414063 271.226563 298.234375 C 271.226563 298.234375 270.28125 288.789063 264.140625 285.246094 "/>
<path style=" stroke:none;fill-rule:nonzero;fill:rgb(27.49939%,19.999695%,55.699158%);fill-opacity:1;" d="M 230.835938 244.382813 C 230.835938 244.382813 220.679688 243.675781 224.460938 253.359375 C 224.460938 253.359375 229.65625 260.917969 239.105469 257.375 C 239.105469 257.375 243.355469 250.289063 230.835938 244.382813 "/>
<path style=" stroke:none;fill-rule:nonzero;fill:rgb(100%,100%,100%);fill-opacity:1;" d="M 235.796875 251.46875 C 235.796875 253.035156 234.527344 254.304688 232.964844 254.304688 C 231.398438 254.304688 230.128906 253.035156 230.128906 251.46875 C 230.128906 249.902344 231.398438 248.636719 232.964844 248.636719 C 234.527344 248.636719 235.796875 249.902344 235.796875 251.46875 "/>
<path style=" stroke:none;fill-rule:nonzero;fill:rgb(87.5%,23.899841%,17.298889%);fill-opacity:1;" d="M 58.328125 201.480469 C 58.328125 201.480469 62.378906 260.9375 63.28125 264.09375 C 63.28125 264.09375 18.238281 273.101563 21.390625 228.058594 C 21.390625 228.058594 24.542969 196.523438 58.328125 201.480469 "/>
<path style=" stroke:none;fill-rule:nonzero;fill:rgb(87.5%,23.899841%,17.298889%);fill-opacity:1;" d="M 56.976563 191.121094 C 56.976563 191.121094 -5.1875 178.058594 15.535156 124.453125 C 15.535156 124.453125 29.949219 99.679688 67.785156 101.929688 C 67.785156 101.929688 43.011719 40.667969 91.210938 24.003906 C 91.210938 24.003906 111.929688 14.09375 145.265625 45.621094 L 159.679688 63.191406 L 161.480469 63.191406 C 161.480469 63.191406 179.949219 -2.125 224.542969 13.640625 C 224.542969 13.640625 254.273438 24.902344 257.425781 55.082031 C 257.425781 55.082031 265.535156 87.515625 247.964844 96.976563 C 247.964844 96.976563 247.515625 127.15625 252.472656 130.757813 C 252.472656 130.757813 259.675781 138.417969 260.128906 126.253906 C 260.128906 126.253906 259.226563 114.542969 257.425781 113.640625 C 257.425781 113.640625 259.679688 108.234375 262.832031 113.191406 C 262.832031 113.191406 280.847656 142.921875 257.875 152.832031 C 257.875 152.832031 240.308594 158.6875 234.453125 124.902344 C 234.453125 124.902344 218.234375 133.460938 199.769531 110.9375 C 199.769531 110.9375 190.757813 119.046875 165.535156 101.480469 C 165.535156 101.480469 122.742188 96.074219 90.757813 130.308594 C 90.757813 130.308594 58.328125 156.886719 56.976563 191.121094 "/>
<path style=" stroke:none;fill-rule:nonzero;fill:rgb(27.49939%,19.999695%,55.699158%);fill-opacity:1;" d="M 219.550781 37.59375 C 219.550781 37.59375 205.027344 45.949219 199.457031 32.019531 C 199.457031 32.019531 198.660156 14.710938 219.550781 18.890625 C 219.550781 18.890625 245.414063 28.4375 246.011719 40.574219 C 246.011719 40.574219 249.792969 51.71875 246.011719 53.90625 C 246.011719 53.90625 233.875 51.71875 231.6875 42.167969 C 231.6875 42.167969 222.734375 34.605469 219.550781 37.59375 "/>
<path style=" stroke:none;fill-rule:nonzero;fill:rgb(27.49939%,19.999695%,55.699158%);fill-opacity:1;" d="M 81.949219 97.902344 C 73.558594 98.089844 71.1875 79.21875 71.1875 79.21875 C 67.46875 55.152344 78.40625 49.246094 78.40625 49.246094 C 88.035156 48.152344 81.035156 61.933594 81.035156 61.933594 C 80.160156 63.902344 82.128906 65.433594 82.128906 65.433594 C 91.097656 77.90625 82.785156 96.941406 82.785156 96.941406 C 82.785156 96.941406 82.335938 97.890625 81.949219 97.902344 "/>
<path style=" stroke:none;fill-rule:nonzero;fill:rgb(27.49939%,19.999695%,55.699158%);fill-opacity:1;" d="M 26.117188 128.667969 C 26.117188 128.667969 29.617188 156.671875 36.839844 160.171875 C 36.839844 160.171875 38.371094 170.457031 31.367188 165.859375 C 31.367188 165.859375 1.175781 146.828125 23.492188 127.574219 C 23.492188 127.574219 25.898438 126.039063 26.117188 128.667969 "/>
<path style=" stroke:none;fill-rule:nonzero;fill:rgb(27.49939%,19.999695%,55.699158%);fill-opacity:1;" d="M 104.273438 142.925781 C 104.273438 142.925781 95.261719 155.085938 103.820313 164.546875 C 103.820313 164.546875 111.929688 174.003906 120.488281 162.742188 C 120.488281 162.742188 106.074219 169.949219 104.273438 142.925781 "/>
<path style=" stroke:none;fill-rule:nonzero;fill:rgb(27.49939%,19.999695%,55.699158%);fill-opacity:1;" d="M 120.488281 196.527344 C 120.488281 196.527344 118.6875 225.355469 103.371094 199.679688 C 103.371094 199.679688 101.570313 197.878906 99.769531 201.480469 C 99.769531 201.480469 95.261719 231.210938 84.902344 196.976563 C 84.902344 196.976563 79.949219 206.4375 89.40625 218.601563 C 89.40625 218.601563 93.460938 224.003906 97.964844 216.796875 C 97.964844 216.796875 104.273438 202.382813 109.679688 212.292969 C 109.679688 212.292969 111.480469 222.203125 118.238281 212.292969 C 118.238281 212.292969 127.246094 201.933594 120.488281 196.527344 "/>
<path style=" stroke:none;fill-rule:nonzero;fill:rgb(27.49939%,19.999695%,55.699158%);fill-opacity:1;" d="M 105.625 256.4375 C 105.625 256.4375 119.136719 292.921875 124.992188 260.941406 C 124.992188 260.941406 126.796875 258.238281 126.796875 263.644531 C 126.796875 263.644531 127.695313 296.078125 108.328125 274.90625 C 108.328125 274.90625 99.769531 260.492188 105.625 256.4375 "/>
<path style=" stroke:none;fill-rule:nonzero;fill:rgb(27.49939%,19.999695%,55.699158%);fill-opacity:1;" d="M 80.847656 235.269531 C 80.847656 235.269531 76.792969 244.726563 87.15625 257.339844 C 87.15625 257.339844 91.210938 257.789063 84.453125 248.78125 C 84.453125 248.78125 85.804688 238.421875 80.847656 235.269531 "/>
<path style=" stroke:none;fill-rule:nonzero;fill:rgb(27.49939%,19.999695%,55.699158%);fill-opacity:1;" d="M 92.558594 315.898438 C 92.558594 315.898438 96.164063 329.410156 100.21875 331.214844 C 100.21875 331.214844 102.472656 331.214844 106.523438 326.257813 C 106.523438 326.257813 111.03125 319.953125 118.238281 326.257813 C 118.238281 326.257813 132.199219 341.121094 135.804688 325.808594 C 135.804688 325.808594 139.40625 312.292969 147.066406 322.203125 C 147.066406 322.203125 160.128906 345.628906 167.335938 328.960938 L 172.742188 317.25 L 171.390625 310.042969 C 171.390625 310.042969 160.578125 331.214844 155.625 326.257813 C 155.625 326.257813 150.667969 324.457031 143.914063 312.296875 C 143.914063 312.296875 140.308594 309.59375 135.804688 318.601563 C 135.804688 318.601563 128.597656 338.871094 114.632813 315.445313 C 114.632813 315.445313 112.832031 311.84375 111.03125 315.445313 C 111.03125 315.445313 106.523438 325.355469 102.019531 325.355469 C 102.019531 325.355469 95.714844 314.996094 92.558594 315.898438 "/>
<path style=" stroke:none;fill-rule:nonzero;fill:rgb(27.49939%,19.999695%,55.699158%);fill-opacity:1;" d="M 92.109375 351.933594 C 92.109375 351.933594 88.957031 376.257813 100.21875 384.367188 C 100.21875 384.367188 105.175781 383.015625 105.175781 377.609375 C 105.175781 377.609375 109.226563 366.347656 113.28125 373.105469 C 113.28125 373.105469 120.039063 393.375 131.300781 385.71875 L 137.605469 372.203125 C 137.605469 372.203125 139.40625 369.503906 140.308594 371.304688 C 140.308594 371.304688 150.21875 397.429688 160.128906 389.320313 C 160.128906 389.320313 164.632813 374.457031 168.238281 379.410156 C 168.238281 379.410156 178.597656 402.835938 185.804688 387.070313 C 185.804688 387.070313 193.011719 362.296875 191.660156 355.988281 C 191.660156 355.988281 188.058594 359.589844 186.707031 367.25 C 186.707031 367.25 182.652344 401.484375 165.535156 366.347656 C 165.535156 366.347656 160.578125 366.800781 160.578125 372.203125 C 160.578125 372.203125 160.578125 396.980469 148.417969 371.753906 C 148.417969 371.753906 140.308594 354.636719 135.804688 364.546875 C 135.804688 364.546875 134.003906 381.214844 127.246094 380.761719 C 127.246094 380.761719 117.785156 378.511719 113.730469 366.800781 C 113.730469 366.800781 108.777344 358.691406 104.722656 367.25 L 101.121094 373.105469 C 101.121094 373.105469 92.109375 369.953125 94.8125 353.734375 C 94.8125 353.734375 93.011719 349.230469 92.109375 351.933594 "/>
<path style=" stroke:none;fill-rule:nonzero;fill:rgb(27.49939%,19.999695%,55.699158%);fill-opacity:1;" d="M 100.667969 410.492188 C 100.667969 410.492188 109.679688 454.1875 128.597656 420.851563 C 128.597656 420.851563 131.75 413.195313 138.058594 426.257813 C 138.058594 426.257813 151.121094 450.582031 160.578125 433.464844 C 160.578125 433.464844 166.886719 413.195313 174.992188 428.0625 C 174.992188 428.0625 185.804688 451.03125 191.210938 431.664063 C 191.210938 431.664063 195.261719 420.851563 194.363281 414.996094 C 194.363281 414.996094 188.058594 435.71875 181.75 430.761719 C 181.75 430.761719 168.238281 409.589844 164.632813 413.644531 C 164.632813 413.644531 159.226563 433.464844 153.820313 433.464844 C 153.820313 433.464844 147.515625 438.871094 136.703125 415.898438 C 136.703125 415.898438 131.75 406.890625 127.246094 414.996094 C 127.246094 414.996094 113.730469 443.824219 104.722656 414.546875 C 104.722656 414.546875 102.019531 408.242188 100.667969 410.492188 "/>
<path style=" stroke:none;fill-rule:nonzero;fill:rgb(27.49939%,19.999695%,55.699158%);fill-opacity:1;" d="M 173.640625 180.765625 C 173.640625 180.765625 171.390625 176.710938 177.695313 171.304688 C 177.695313 171.304688 182.652344 162.746094 193.011719 178.511719 C 193.011719 178.511719 193.371094 181.585938 190.800781 179.019531 C 190.800781 179.019531 183.882813 171.113281 181.316406 173.878906 C 181.316406 173.878906 177.363281 175.261719 175.980469 180.597656 C 175.980469 180.597656 174.859375 182.113281 173.640625 180.765625 "/>
<path style=" stroke:none;fill-rule:nonzero;fill:rgb(27.49939%,19.999695%,55.699158%);fill-opacity:1;" d="M 226.367188 175.460938 C 226.367188 175.460938 231.703125 163.40625 242.570313 162.816406 C 242.570313 162.816406 251.070313 167.359375 250.671875 171.3125 C 250.671875 171.3125 238.621094 162.617188 228.738281 174.472656 C 228.738281 174.472656 227.355469 176.449219 226.367188 175.460938 "/>
<path style=" stroke:none;fill-rule:nonzero;fill:rgb(100%,100%,100%);fill-opacity:1;" d="M 236.25 200.753906 C 236.25 200.753906 232.097656 183.363281 242.175781 183.167969 C 242.175781 183.167969 248.5 183.761719 247.3125 187.710938 C 247.3125 187.710938 240.792969 190.675781 238.222656 199.566406 C 238.222656 199.566406 237.632813 201.347656 236.25 200.753906 "/>
<path style=" stroke:none;fill-rule:nonzero;fill:rgb(100%,100%,100%);fill-opacity:1;" d="M 198.109375 199.566406 C 198.109375 199.566406 190.601563 196.804688 186.648438 212.414063 C 186.648438 212.414063 183.488281 213.203125 182.304688 209.449219 C 182.304688 209.449219 179.140625 190.28125 191.394531 191.664063 C 191.394531 191.664063 197.914063 194.628906 198.308594 197 C 198.308594 197 198.902344 198.578125 198.109375 199.566406 "/>
<path style=" stroke:none;fill-rule:nonzero;fill:rgb(27.49939%,19.999695%,55.699158%);fill-opacity:1;" d="M 31.832031 226.351563 C 31.832031 226.351563 21.824219 233.320313 35.40625 249.40625 C 35.40625 249.40625 43.089844 261.914063 48.453125 256.019531 C 48.453125 256.019531 54.351563 250.65625 37.910156 235.109375 C 37.910156 235.109375 34.871094 233.679688 35.945313 232.070313 C 35.945313 232.070313 35.765625 225.996094 31.832031 226.351563 "/>
<path style=" stroke:none;fill-rule:nonzero;fill:rgb(100%,100%,100%);fill-opacity:1;" d="M 24.542969 133.910156 C 24.542969 133.910156 20.039063 132.109375 19.589844 140.667969 C 19.589844 140.667969 19.136719 158.6875 29.949219 159.589844 L 31.75 157.335938 C 31.75 157.335938 24.992188 142.472656 26.792969 136.164063 L 24.542969 133.910156 "/>
<path style=" stroke:none;fill-rule:nonzero;fill:rgb(100%,100%,100%);fill-opacity:1;" d="M 77.695313 63.191406 C 77.695313 63.191406 69.585938 73.101563 75.445313 88.867188 C 75.445313 88.867188 79.046875 98.324219 81.75 94.273438 C 81.75 94.273438 85.804688 76.253906 77.695313 63.191406 "/>
<path style=" stroke:none;fill-rule:nonzero;fill:rgb(100%,100%,100%);fill-opacity:1;" d="M 219.589844 34.363281 C 219.589844 34.363281 206.976563 42.46875 202.019531 31.210938 C 202.019531 31.210938 203.824219 17.242188 220.039063 25.351563 C 220.039063 25.351563 241.210938 35.261719 243.914063 45.621094 L 241.660156 45.621094 C 241.660156 45.621094 224.09375 31.210938 219.589844 34.363281 "/>
<path style=" stroke:none;fill-rule:nonzero;fill:rgb(100%,100%,100%);fill-opacity:1;" d="M 34.453125 235.71875 C 34.453125 235.71875 29.046875 237.519531 33.550781 244.726563 C 33.550781 244.726563 38.957031 254.183594 43.460938 250.132813 C 43.460938 250.132813 40.757813 239.320313 34.453125 235.71875 "/>
</g>
</svg>
